<?xml version="1.0" encoding="UTF-8" standalone="no"?>
<!-- Created with Inkscape (http://www.inkscape.org/) -->

<svg
   width="121"
   height="120.99998"
   viewBox="0 0 32.014583 32.014579"
   version="1.1"
   id="svg1"
   inkscape:version="1.4.2 (1:1.4.2+202505120737+ebf0e940d0)"
   sodipodi:docname="src_feli_pages.svg"
   xmlns:inkscape="http://www.inkscape.org/namespaces/inkscape"
   xmlns:sodipodi="http://sodipodi.sourceforge.net/DTD/sodipodi-0.dtd"
   xmlns="http://www.w3.org/2000/svg"
   xmlns:svg="http://www.w3.org/2000/svg">
  <sodipodi:namedview
     id="namedview1"
     pagecolor="#ffffff"
     bordercolor="#000000"
     borderopacity="0.25"
     inkscape:showpageshadow="2"
     inkscape:pageopacity="0.0"
     inkscape:pagecheckerboard="0"
     inkscape:deskcolor="#d1d1d1"
     inkscape:document-units="px"
     inkscape:zoom="2.2198669"
     inkscape:cx="284.70175"
     inkscape:cy="330.42522"
     inkscape:window-width="1854"
     inkscape:window-height="1131"
     inkscape:window-x="0"
     inkscape:window-y="0"
     inkscape:window-maximized="1"
     inkscape:current-layer="layer1">
    <inkscape:page
       x="0"
       y="0"
       width="32.014584"
       height="32.01458"
       id="page2"
       margin="0"
       bleed="0" />
  </sodipodi:namedview>
  <defs
     id="defs1" />
  <g
     inkscape:label="Layer 1"
     inkscape:groupmode="layer"
     id="layer1"
     transform="translate(-26.837061,-39.984617)">
    <rect
       style="fill:#f9f9f9;stroke:#ffffff;stroke-width:0.264583;stroke-linejoin:round"
       id="rect2"
       width="31.75"
       height="31.75"
       x="26.969353"
       y="40.116909" />
    <path
       style="fill:#0000ff;stroke:#ffffff;stroke-width:0.264583;stroke-linejoin:round"
       d="m 29.558829,42.907979 v 27.294239 h 4.290798 L 33.730438,53.873349 h 6.793764 l 0.238376,-2.264587 -7.389706,-1.0727 0.119189,-4.05242 10.607805,-0.238379 v -3.81404 z"
       id="path2" />
    <path
       style="fill:#0000ff;stroke:#ffffff;stroke-width:0.264583;stroke-linejoin:round"
       d="m 35.637459,56.376315 0.238379,13.229961 7.628083,0.357565 0.238379,-3.337287 -5.959443,-0.595945 -0.119187,-4.529174 6.07863,1.0727 -0.238379,-8.104841 z"
       id="path3" />
    <path
       style="fill:#ffffff;stroke:#ffffff;stroke-width:0.264583;stroke-linejoin:round"
       d="m 38.497991,57.925768 -0.119189,1.907022 3.456476,0.834323 -0.119189,-3.456477 z"
       id="path4" />
    <path
       style="fill:#0000ff;stroke:#ffffff;stroke-width:0.264583;stroke-linejoin:round"
       d="m 45.291753,43.027166 v 26.340731 l 3.322923,-0.11919 -0.238379,-26.459918 z"
       id="path5"
       sodipodi:nodetypes="ccccc" />
    <path
       style="fill:#0000ff;stroke:#ffffff;stroke-width:0.264583;stroke-linejoin:round"
       d="m 49.70174,56.376315 1.311077,5.840251 -1.549453,7.628086 h 7.151328 l -2.383775,-7.151329 2.622154,-7.985653 z"
       id="path6"
       sodipodi:nodetypes="ccccccc" />
    <path
       style="fill:#0000ff;stroke:#ffffff;stroke-width:0.264583;stroke-linejoin:round"
       d="m 52.085517,44.219055 c -1.081631,0.522274 -1.918882,1.783401 -2.026211,2.979719 -0.06993,0.779453 0.30674,1.704806 0.953511,2.145401 0.755914,0.514945 1.89283,0.460656 2.741343,0.119189 1.120964,-0.45111 2.273789,-1.435759 2.502966,-2.622156 0.162315,-0.840268 -0.263067,-1.878124 -0.953511,-2.383776 -0.867803,-0.635543 -2.249468,-0.706088 -3.218098,-0.238377 z"
       id="path7"
       sodipodi:nodetypes="aaaaaaa" />
  </g>
</svg>
