<?xml version="1.0" encoding="UTF-8" standalone="no"?>
<!-- Created with Inkscape (http://www.inkscape.org/) -->

<svg
   width="600"
   height="3000"
   viewBox="0 0 158.75 793.75"
   version="1.1"
   id="svg1"
   inkscape:version="1.4.2 (1:1.4.2+202505120737+ebf0e940d0)"
   sodipodi:docname="src_systemix_pages.svg"
   xmlns:inkscape="http://www.inkscape.org/namespaces/inkscape"
   xmlns:sodipodi="http://sodipodi.sourceforge.net/DTD/sodipodi-0.dtd"
   xmlns="http://www.w3.org/2000/svg"
   xmlns:svg="http://www.w3.org/2000/svg">
  <sodipodi:namedview
     id="namedview1"
     pagecolor="#ffffff"
     bordercolor="#000000"
     borderopacity="0.25"
     inkscape:showpageshadow="2"
     inkscape:pageopacity="0.0"
     inkscape:pagecheckerboard="0"
     inkscape:deskcolor="#d1d1d1"
     inkscape:document-units="px"
     inkscape:zoom="2.219867"
     inkscape:cx="146.85564"
     inkscape:cy="119.15128"
     inkscape:window-width="1854"
     inkscape:window-height="1131"
     inkscape:window-x="0"
     inkscape:window-y="0"
     inkscape:window-maximized="1"
     inkscape:current-layer="layer1" />
  <defs
     id="defs1">
    <rect
       x="257.67309"
       y="1602.7987"
       width="123.43082"
       height="45.047744"
       id="rect55" />
    <rect
       x="536.96911"
       y="967.62554"
       width="98.204082"
       height="54.057293"
       id="rect23" />
    <rect
       x="221.6349"
       y="1548.7414"
       width="130.63846"
       height="42.344879"
       id="rect53" />
    <rect
       x="69.373526"
       y="1592.8882"
       width="114.42127"
       height="29.731511"
       id="rect52" />
    <rect
       x="267.5836"
       y="1573.0672"
       width="140.54896"
       height="58.562067"
       id="rect51" />
    <rect
       x="100.58095"
       y="1439.7259"
       width="398.54805"
       height="23.424827"
       id="rect48" />
    <rect
       x="178.38907"
       y="1263.1387"
       width="75.68021"
       height="36.93915"
       id="rect47" />
    <rect
       x="209.02153"
       y="1330.7104"
       width="89.194533"
       height="36.038195"
       id="rect46" />
    <rect
       x="61.264932"
       y="902.75679"
       width="146.85564"
       height="31.533421"
       id="rect45" />
    <rect
       x="54.057293"
       y="1080.2449"
       width="300.01797"
       height="96.402172"
       id="rect44" />
    <rect
       x="61.264932"
       y="978.437"
       width="265.78169"
       height="48.651563"
       id="rect43" />
    <rect
       x="468.49654"
       y="361.28291"
       width="124.33177"
       height="33.33533"
       id="rect42" />
    <rect
       x="-227.04063"
       y="522.55383"
       width="171.18143"
       height="61.264932"
       id="rect22" />
    <rect
       x="-245.05973"
       y="425.2507"
       width="179.29002"
       height="50.453473"
       id="rect21" />
    <rect
       x="246.86165"
       y="609.94648"
       width="122.52987"
       height="31.533422"
       id="rect19" />
    <rect
       x="39.642016"
       y="771.21741"
       width="272.08838"
       height="36.939152"
       id="rect18" />
    <rect
       x="261.27693"
       y="922.57784"
       width="202.71486"
       height="54.95825"
       id="rect17" />
    <rect
       x="395.51921"
       y="699.14102"
       width="240.55497"
       height="45.047746"
       id="rect16" />
    <rect
       x="438.76504"
       y="789.23651"
       width="126.13369"
       height="54.057295"
       id="rect15" />
    <rect
       x="437.86409"
       y="585.6207"
       width="133.34133"
       height="40.542971"
       id="rect14" />
    <rect
       x="420.74595"
       y="691.93338"
       width="131.53942"
       height="40.542971"
       id="rect13" />
    <rect
       x="270.66406"
       y="327.94759"
       width="130.4384"
       height="38.741061"
       id="rect11" />
    <rect
       x="291.00844"
       y="411.7364"
       width="158.56807"
       height="32.434377"
       id="rect10" />
    <rect
       x="273.89029"
       y="378.40107"
       width="208.12059"
       height="74.779258"
       id="rect9" />
    <rect
       x="182.89385"
       y="592.82834"
       width="70.274484"
       height="31.533422"
       id="rect7" />
    <rect
       x="182.89385"
       y="480.20897"
       width="261.27693"
       height="45.948701"
       id="rect6" />
    <rect
       x="58.56207"
       y="648.68754"
       width="315.33422"
       height="78.383078"
       id="rect5" />
    <rect
       x="97.303131"
       y="539.672"
       width="177.48812"
       height="53.15634"
       id="rect4" />
    <rect
       x="62.165889"
       y="400.92494"
       width="237.8521"
       height="72.076394"
       id="rect3" />
    <rect
       x="35.675995"
       y="35.675995"
       width="268.8441"
       height="57.33642"
       id="rect1" />
    <rect
       x="395.5192"
       y="699.14099"
       width="240.55498"
       height="45.047745"
       id="rect16-0" />
    <rect
       x="261.27692"
       y="922.57782"
       width="202.71486"
       height="54.958248"
       id="rect17-6" />
    <rect
       x="270.66406"
       y="327.9476"
       width="156.56609"
       height="38.741062"
       id="rect11-9" />
    <rect
       x="61.264931"
       y="978.43701"
       width="265.78168"
       height="48.651562"
       id="rect43-3" />
    <rect
       x="54.057293"
       y="1080.2449"
       width="300.01797"
       height="96.402168"
       id="rect44-7" />
    <rect
       x="61.264931"
       y="978.43701"
       width="265.78168"
       height="48.651562"
       id="rect43-3-6" />
    <rect
       x="54.057293"
       y="1080.2449"
       width="300.01797"
       height="96.402168"
       id="rect44-7-1" />
    <rect
       x="209.02153"
       y="1330.7104"
       width="89.194534"
       height="36.038197"
       id="rect46-2" />
    <rect
       x="61.264931"
       y="978.43701"
       width="265.78168"
       height="48.651562"
       id="rect43-3-6-0" />
    <rect
       x="54.057293"
       y="1080.2449"
       width="300.01797"
       height="96.402168"
       id="rect44-7-1-3" />
    <rect
       x="209.02153"
       y="1330.7104"
       width="89.194534"
       height="36.038197"
       id="rect46-2-6" />
    <rect
       x="61.264931"
       y="978.43701"
       width="265.78168"
       height="48.651562"
       id="rect43-3-5" />
    <rect
       x="54.057293"
       y="1080.2449"
       width="300.01797"
       height="96.402168"
       id="rect44-7-6" />
    <rect
       x="209.02153"
       y="1330.7104"
       width="89.194534"
       height="36.038197"
       id="rect46-9" />
    <rect
       x="437.86411"
       y="585.62073"
       width="133.34132"
       height="40.542973"
       id="rect14-6" />
    <rect
       x="270.66406"
       y="327.9476"
       width="130.4384"
       height="38.741062"
       id="rect11-2" />
    <rect
       x="420.74594"
       y="691.93335"
       width="131.53941"
       height="40.542973"
       id="rect13-7" />
    <rect
       x="270.66406"
       y="327.9476"
       width="156.56609"
       height="38.741062"
       id="rect11-9-2" />
    <rect
       x="468.49655"
       y="361.2829"
       width="124.33177"
       height="33.335331"
       id="rect42-2" />
  </defs>
  <g
     inkscape:label="Layer 1"
     inkscape:groupmode="layer"
     id="layer1">
    <text
       xml:space="preserve"
       transform="matrix(0.26458333,0,0,0.26458333,-0.67423383,-2.3598184)"
       id="text1"
       style="font-size:16px;line-height:normal;font-family:'Liberation Mono';-inkscape-font-specification:'Liberation Mono';text-decoration-color:#000000;white-space:pre;shape-inside:url(#rect1);display:inline;fill:#000000;stroke-width:1;-inkscape-stroke:none;stop-color:#000000"><tspan
         x="35.675781"
         y="49.912222"
         id="tspan1">src_systemix_pages.svg</tspan></text>
    <rect
       style="fill:#f9f9f9;stroke:#ffffff;stroke-width:0.264583;stroke-linejoin:round"
       id="rect2"
       width="31.75"
       height="31.75"
       x="26.969353"
       y="40.116909"
       inkscape:export-filename="systemix_logo.svg"
       inkscape:export-xdpi="96"
       inkscape:export-ydpi="96" />
    <path
       style="fill:none;stroke:#d4aa00;stroke-width:0.79375;stroke-linejoin:round"
       d="m 56.257961,45.073127 c 0,0 -2.046143,-2.88155 -3.579919,-2.903373 -1.211579,-0.01724 -2.263073,1.171815 -2.891476,2.212094 -0.700456,1.159556 -1.503242,2.927804 -0.688447,4.009419 0.528975,0.702199 1.74254,0.35276 2.616096,0.27651 0.998627,-0.08717 1.921129,-1.08201 2.891475,-0.829534 0.753985,0.196182 1.426562,0.910535 1.652271,1.65907 0.339085,1.124533 0.05985,2.5531 -0.688447,3.456393 -0.790288,0.953984 -2.21387,1.518501 -3.44223,1.38256 -1.050256,-0.116229 -2.616098,-1.797327 -2.616098,-1.797327"
       id="path1-3"
       sodipodi:nodetypes="caaaaaaaac" />
    <path
       style="fill:none;stroke:#d4aa00;stroke-width:0.79375;stroke-linejoin:round"
       d="m 36.406944,45.322593 c 0,0 -2.046145,-2.881551 -3.579919,-2.903373 -1.21158,-0.01724 -2.263073,1.171815 -2.891477,2.212093 -0.700457,1.159557 -1.503242,2.927805 -0.688447,4.00942 0.528975,0.7022 1.742541,0.35276 2.616096,0.27651 0.998627,-0.08717 1.92113,-1.08201 2.891475,-0.829534 0.753986,0.196181 1.426561,0.910535 1.652272,1.65907 0.339085,1.124533 0.05984,2.5531 -0.688448,3.456393 -0.790289,0.953985 -2.213869,1.518501 -3.442229,1.382561 -1.050257,-0.11623 -2.616099,-1.797328 -2.616099,-1.797328"
       id="path1"
       sodipodi:nodetypes="caaaaaaaac" />
    <path
       style="fill:none;stroke:#d4aa00;stroke-width:0.79375;stroke-linejoin:round"
       d="m 39.827586,43.38701 c 0,0 -0.05739,2.045789 0.137687,3.041629 0.131687,0.672226 0.130724,1.540927 0.688447,1.935581 0.600263,0.424758 1.505561,0.230728 2.203028,0 1.246751,-0.412437 2.425371,-1.2627 3.166852,-2.35035 0.591188,-0.86719 0.826135,-3.041626 0.826135,-3.041626 l -5.369881,11.475231"
       id="path2"
       sodipodi:nodetypes="caaaacc" />
    <path
       style="fill:none;stroke:#d4aa00;stroke-width:0.79375;stroke-linejoin:round"
       d="m 29.32045,69.72546 1.430266,-10.250239 2.145398,5.482685 3.575666,-5.244306 1.191887,10.726994"
       id="path3" />
    <path
       style="fill:none;stroke:#d4aa00;stroke-width:0.79375;stroke-linejoin:round"
       d="m 41.239331,62.693319 c 0,0 -1.201374,3.829148 -0.834321,5.721064 0.105123,0.541838 0.348266,1.168751 0.834321,1.430266 0.630737,0.33936 1.540927,0.265007 2.1454,-0.119189 0.495067,-0.314658 0.834322,-1.549456 0.834322,-1.549456"
       id="path4"
       sodipodi:nodetypes="caaac" />
    <ellipse
       style="fill:none;stroke:#d4aa00;stroke-width:0.79375;stroke-linejoin:round"
       id="path5"
       cx="42.669598"
       cy="59.951977"
       rx="1.5494547"
       ry="1.6686435" />
    <path
       style="fill:none;stroke:#d4aa00;stroke-width:0.79375;stroke-linejoin:round"
       d="M 47.913906,69.60627 54.826857,59.7136"
       id="path6" />
    <path
       style="fill:none;stroke:#d4aa00;stroke-width:0.79375;stroke-linejoin:round"
       d="m 47.079585,60.190355 8.343217,10.01186"
       id="path7" />
  </g>
</svg>
