<?xml version="1.0" encoding="UTF-8" standalone="no"?>
<!-- Created with Inkscape (http://www.inkscape.org/) -->

<svg
   width="121"
   height="120.99998"
   viewBox="0 0 32.014583 32.014579"
   version="1.1"
   id="svg1"
   inkscape:version="1.4.2 (1:1.4.2+202505120737+ebf0e940d0)"
   sodipodi:docname="src_systemix_pages.svg"
   xmlns:inkscape="http://www.inkscape.org/namespaces/inkscape"
   xmlns:sodipodi="http://sodipodi.sourceforge.net/DTD/sodipodi-0.dtd"
   xmlns="http://www.w3.org/2000/svg"
   xmlns:svg="http://www.w3.org/2000/svg">
  <sodipodi:namedview
     id="namedview1"
     pagecolor="#ffffff"
     bordercolor="#000000"
     borderopacity="0.25"
     inkscape:showpageshadow="2"
     inkscape:pageopacity="0.0"
     inkscape:pagecheckerboard="0"
     inkscape:deskcolor="#d1d1d1"
     inkscape:document-units="px"
     inkscape:zoom="2.219867"
     inkscape:cx="146.85564"
     inkscape:cy="119.15128"
     inkscape:window-width="1854"
     inkscape:window-height="1131"
     inkscape:window-x="0"
     inkscape:window-y="0"
     inkscape:window-maximized="1"
     inkscape:current-layer="layer1">
    <inkscape:page
       x="0"
       y="0"
       width="32.014584"
       height="32.01458"
       id="page2"
       margin="0"
       bleed="0" />
  </sodipodi:namedview>
  <defs
     id="defs1" />
  <g
     inkscape:label="Layer 1"
     inkscape:groupmode="layer"
     id="layer1"
     transform="translate(-26.837061,-39.984617)">
    <rect
       style="fill:#f9f9f9;stroke:#ffffff;stroke-width:0.264583;stroke-linejoin:round"
       id="rect2"
       width="31.75"
       height="31.75"
       x="26.969353"
       y="40.116909"
       inkscape:export-filename="systemix_logo.svg"
       inkscape:export-xdpi="96"
       inkscape:export-ydpi="96" />
    <path
       style="fill:none;stroke:#d4aa00;stroke-width:0.79375;stroke-linejoin:round"
       d="m 56.257961,45.073127 c 0,0 -2.046143,-2.88155 -3.579919,-2.903373 -1.211579,-0.01724 -2.263073,1.171815 -2.891476,2.212094 -0.700456,1.159556 -1.503242,2.927804 -0.688447,4.009419 0.528975,0.702199 1.74254,0.35276 2.616096,0.27651 0.998627,-0.08717 1.921129,-1.08201 2.891475,-0.829534 0.753985,0.196182 1.426562,0.910535 1.652271,1.65907 0.339085,1.124533 0.05985,2.5531 -0.688447,3.456393 -0.790288,0.953984 -2.21387,1.518501 -3.44223,1.38256 -1.050256,-0.116229 -2.616098,-1.797327 -2.616098,-1.797327"
       id="path1-3"
       sodipodi:nodetypes="caaaaaaaac" />
    <path
       style="fill:none;stroke:#d4aa00;stroke-width:0.79375;stroke-linejoin:round"
       d="m 36.406944,45.322593 c 0,0 -2.046145,-2.881551 -3.579919,-2.903373 -1.21158,-0.01724 -2.263073,1.171815 -2.891477,2.212093 -0.700457,1.159557 -1.503242,2.927805 -0.688447,4.00942 0.528975,0.7022 1.742541,0.35276 2.616096,0.27651 0.998627,-0.08717 1.92113,-1.08201 2.891475,-0.829534 0.753986,0.196181 1.426561,0.910535 1.652272,1.65907 0.339085,1.124533 0.05984,2.5531 -0.688448,3.456393 -0.790289,0.953985 -2.213869,1.518501 -3.442229,1.382561 -1.050257,-0.11623 -2.616099,-1.797328 -2.616099,-1.797328"
       id="path1"
       sodipodi:nodetypes="caaaaaaaac" />
    <path
       style="fill:none;stroke:#d4aa00;stroke-width:0.79375;stroke-linejoin:round"
       d="m 39.827586,43.38701 c 0,0 -0.05739,2.045789 0.137687,3.041629 0.131687,0.672226 0.130724,1.540927 0.688447,1.935581 0.600263,0.424758 1.505561,0.230728 2.203028,0 1.246751,-0.412437 2.425371,-1.2627 3.166852,-2.35035 0.591188,-0.86719 0.826135,-3.041626 0.826135,-3.041626 l -5.369881,11.475231"
       id="path2"
       sodipodi:nodetypes="caaaacc" />
    <path
       style="fill:none;stroke:#d4aa00;stroke-width:0.79375;stroke-linejoin:round"
       d="m 29.32045,69.72546 1.430266,-10.250239 2.145398,5.482685 3.575666,-5.244306 1.191887,10.726994"
       id="path3" />
    <path
       style="fill:none;stroke:#d4aa00;stroke-width:0.79375;stroke-linejoin:round"
       d="m 41.239331,62.693319 c 0,0 -1.201374,3.829148 -0.834321,5.721064 0.105123,0.541838 0.348266,1.168751 0.834321,1.430266 0.630737,0.33936 1.540927,0.265007 2.1454,-0.119189 0.495067,-0.314658 0.834322,-1.549456 0.834322,-1.549456"
       id="path4"
       sodipodi:nodetypes="caaac" />
    <ellipse
       style="fill:none;stroke:#d4aa00;stroke-width:0.79375;stroke-linejoin:round"
       id="path5"
       cx="42.669598"
       cy="59.951977"
       rx="1.5494547"
       ry="1.6686435" />
    <path
       style="fill:none;stroke:#d4aa00;stroke-width:0.79375;stroke-linejoin:round"
       d="M 47.913906,69.60627 54.826857,59.7136"
       id="path6" />
    <path
       style="fill:none;stroke:#d4aa00;stroke-width:0.79375;stroke-linejoin:round"
       d="m 47.079585,60.190355 8.343217,10.01186"
       id="path7" />
  </g>
</svg>
